<?xml version="1.0" encoding="utf-8"?>
<!-- Generator: Adobe Illustrator 16.0.0, SVG Export Plug-In . SVG Version: 6.00 Build 0)  -->
<!DOCTYPE svg PUBLIC "-//W3C//DTD SVG 1.0//EN" "http://www.w3.org/TR/2001/REC-SVG-20010904/DTD/svg10.dtd">
<svg version="1.0" id="Layer_1" xmlns="http://www.w3.org/2000/svg" xmlns:xlink="http://www.w3.org/1999/xlink" x="0px" y="0px"
	 width="989px" height="294px" viewBox="0 0 989 294" enable-background="new 0 0 989 294" xml:space="preserve">
<g>
	<g opacity="0.7">
		<ellipse fill="#009BDE" cx="378.723" cy="147" rx="147.171" ry="147"/>
	</g>
	<g opacity="0.7">
		<ellipse fill="#0583B6" cx="147.171" cy="146.999" rx="147.171" ry="147.001"/>
	</g>
	<g opacity="0.7">
		<ellipse fill="#004987" cx="610.276" cy="147" rx="147.171" ry="147"/>
	</g>
	<g opacity="0.7">
		<ellipse fill="#19315A" cx="841.829" cy="147.001" rx="147.171" ry="146.999"/>
	</g>
	<g>
		<g>
			<path fill="#F1F1F2" d="M253.526,172.267c-0.64,0-1.279-0.244-1.768-0.732c-0.977-0.974-0.977-2.555-0.001-3.53l19.693-19.673
				l-19.692-19.671c-0.977-0.975-0.977-2.555,0-3.53c0.976-0.976,2.56-0.976,3.534,0l23.229,23.201l-23.228,23.203
				C254.807,172.022,254.166,172.267,253.526,172.267z"/>
		</g>
	</g>
	<g>
		<g>
			<path fill="#F1F1F2" d="M485.031,172.267c-0.64,0-1.279-0.244-1.768-0.732c-0.977-0.974-0.977-2.555,0-3.53l19.693-19.673
				l-19.693-19.671c-0.977-0.975-0.977-2.555,0-3.53c0.976-0.976,2.56-0.976,3.535,0l23.229,23.201l-23.229,23.203
				C486.311,172.022,485.671,172.267,485.031,172.267z"/>
		</g>
	</g>
	<g>
		<g>
			<path fill="#F1F1F2" d="M717.325,172.267c-0.64,0-1.279-0.244-1.768-0.732c-0.977-0.974-0.977-2.555,0-3.53l19.692-19.673
				l-19.692-19.671c-0.977-0.975-0.977-2.555,0-3.53s2.559-0.976,3.535,0l23.227,23.201l-23.227,23.203
				C718.604,172.022,717.965,172.267,717.325,172.267z"/>
		</g>
	</g>
</g>
</svg>
