<?xml version="1.0" encoding="utf-8"?>
<!-- Generator: Adobe Illustrator 16.0.0, SVG Export Plug-In . SVG Version: 6.00 Build 0)  -->
<!DOCTYPE svg PUBLIC "-//W3C//DTD SVG 1.0//EN" "http://www.w3.org/TR/2001/REC-SVG-20010904/DTD/svg10.dtd">
<svg version="1.0" id="Layer_1" xmlns="http://www.w3.org/2000/svg" xmlns:xlink="http://www.w3.org/1999/xlink" x="0px" y="0px"
	 width="342px" height="39px" viewBox="0 0 342 39" enable-background="new 0 0 342 39" xml:space="preserve">
<g>
	<g>
		<g>
			<path fill="#003764" d="M322.5,1.5h-273v36h273c9.941,0,18-8.059,18-18S332.441,1.5,322.5,1.5z"/>
			<path fill="#009BDE" d="M322.5,39H48V0h274.5C333.252,0,342,8.748,342,19.5C342,30.252,333.252,39,322.5,39z M51,36h271.5
				c9.098,0,16.5-7.402,16.5-16.5c0-9.098-7.402-16.5-16.5-16.5H51V36z"/>
		</g>
		<g>
			<path fill="#016699" d="M19.5,1.5c-9.941,0-18,8.059-18,18s8.059,18,18,18h30v-36H19.5z"/>
			<path fill="#009BDE" d="M51,39H19.5C8.748,39,0,30.252,0,19.5C0,8.748,8.748,0,19.5,0H51V39z M19.5,3C10.402,3,3,10.402,3,19.5
				C3,28.598,10.402,36,19.5,36H48V3H19.5z"/>
		</g>
	</g>
	<g>
		<path fill="#FFFFFF" d="M81.135,24.932c-3.488,0-6.098-2.434-6.098-5.987c0-3.633,2.688-5.954,6.146-5.954
			c1.584,0,3.297,0.576,4.241,1.665l-1.856,1.856c-0.512-0.704-1.425-1.04-2.289-1.04c-1.904,0-3.266,1.472-3.266,3.473
			c0,2.065,1.328,3.473,3.218,3.473c1.072,0,1.921-0.48,2.401-1.152l1.904,1.793C84.545,24.211,83.04,24.932,81.135,24.932z"/>
		<path fill="#FFFFFF" d="M90.383,24.883c-2.401,0-4.418-1.664-4.418-4.273c0-2.609,2.017-4.209,4.418-4.209
			c2.416,0,4.434,1.601,4.434,4.209C94.816,23.219,92.799,24.883,90.383,24.883z M90.383,18.577c-1.232,0-1.873,1.009-1.873,2.033
			c0,1.025,0.656,2.064,1.889,2.064s1.889-1.039,1.889-2.064C92.287,19.586,91.615,18.577,90.383,18.577z"/>
		<path fill="#FFFFFF" d="M101.711,24.627v-4.354c0-0.881-0.24-1.68-1.185-1.68c-0.929,0-1.409,0.799-1.409,1.713v4.32h-2.641
			v-7.971h2.545v1.104h0.032c0.368-0.704,1.28-1.328,2.385-1.328c2.146,0,2.913,1.665,2.913,3.265v4.93H101.711z"/>
		<path fill="#FFFFFF" d="M111.566,24.627v-4.354c0-0.881-0.24-1.68-1.184-1.68c-0.93,0-1.409,0.799-1.409,1.713v4.32h-2.642v-7.971
			h2.545v1.104h0.033c0.367-0.704,1.279-1.328,2.385-1.328c2.145,0,2.912,1.665,2.912,3.265v4.93H111.566z"/>
		<path fill="#FFFFFF" d="M124.08,21.361h-5.779c0.08,0.881,0.961,1.506,1.905,1.506c0.833,0,1.409-0.354,1.761-0.832l1.824,1.152
			c-0.752,1.088-2,1.695-3.617,1.695c-2.4,0-4.386-1.52-4.386-4.209c0-2.609,1.89-4.274,4.306-4.274
			c2.354,0,4.002,1.617,4.002,4.338C124.096,20.945,124.096,21.17,124.08,21.361z M121.679,19.729c0-0.832-0.528-1.52-1.569-1.52
			c-1.008,0-1.744,0.705-1.809,1.52H121.679z"/>
		<path fill="#FFFFFF" d="M131.215,19.232c-0.289-0.383-0.865-0.639-1.393-0.639c-1.105,0-1.842,0.944-1.842,2.049
			c0,1.104,0.721,2.031,1.873,2.031c0.528,0,1.104-0.207,1.425-0.592l1.456,1.777c-0.656,0.641-1.776,1.023-2.945,1.023
			c-2.512,0-4.465-1.6-4.465-4.24c0-2.594,1.969-4.243,4.449-4.243c1.137,0,2.338,0.433,2.961,1.072L131.215,19.232z"/>
		<path fill="#FFFFFF" d="M136.621,18.625v3.041c0,0.736,0.24,1.121,0.992,1.121c0.256,0,0.576-0.049,0.769-0.129l0.032,1.922
			c-0.353,0.127-0.961,0.24-1.521,0.24c-2.129,0-2.832-1.137-2.832-2.834v-3.361h-1.281v-1.97h1.265v-2.097h2.577v2.097h1.873v1.97
			H136.621z"/>
		<path fill="#FFFFFF" d="M153.872,24.627h-2.642l-1.568-4.961h-0.031l-1.537,4.961h-2.641l-2.754-7.971h2.834l1.376,5.043h0.048
			l1.425-5.043h2.642l1.473,5.043h0.031l1.393-5.043h2.721L153.872,24.627z"/>
		<path fill="#FFFFFF" d="M159.004,15.552c-0.848,0-1.504-0.657-1.504-1.441c0-0.768,0.656-1.44,1.504-1.44
			c0.832,0,1.505,0.641,1.505,1.44C160.509,14.927,159.836,15.552,159.004,15.552z M157.691,24.627v-7.971h2.625v7.971H157.691z"/>
		<path fill="#FFFFFF" d="M165.244,18.625v3.041c0,0.736,0.24,1.121,0.993,1.121c0.256,0,0.576-0.049,0.769-0.129l0.031,1.922
			c-0.352,0.127-0.96,0.24-1.521,0.24c-2.129,0-2.833-1.137-2.833-2.834v-3.361h-1.28v-1.97h1.265v-2.097h2.576v2.097h1.873v1.97
			H165.244z"/>
		<path fill="#FFFFFF" d="M173.598,24.627v-4.32c0-0.896-0.225-1.681-1.169-1.681c-0.912,0-1.425,0.751-1.425,1.697v4.305h-2.625
			v-12.1h2.625v5.138h0.032c0.353-0.641,1.185-1.232,2.289-1.232c2.161,0,2.913,1.665,2.913,3.265v4.93H173.598z"/>
		<path fill="#FFFFFF" d="M182.363,24.627V13.294h7.619v2.321h-4.979v2.129h4.707v2.193h-4.707v2.354h5.267v2.336H182.363z"/>
		<path fill="#FFFFFF" d="M197.966,24.627v-1.039h-0.032c-0.512,0.799-1.553,1.264-2.609,1.264c-2.4,0-3.793-2.018-3.793-4.242
			c0-2.224,1.44-4.177,3.762-4.177c1.168,0,1.984,0.544,2.433,1.072h0.032v-4.978h2.625v12.1H197.966z M195.949,18.577
			c-1.249,0-1.889,1.009-1.889,2.033c0,1.041,0.64,2.064,1.889,2.064c1.184,0,1.92-1.008,1.92-2.049
			C197.869,19.617,197.133,18.577,195.949,18.577z"/>
		<path fill="#FFFFFF" d="M206.477,24.883c-2.4,0-4.418-1.664-4.418-4.273c0-2.609,2.018-4.209,4.418-4.209
			c2.417,0,4.434,1.601,4.434,4.209C210.91,23.219,208.894,24.883,206.477,24.883z M206.477,18.577
			c-1.232,0-1.873,1.009-1.873,2.033c0,1.025,0.656,2.064,1.889,2.064s1.889-1.039,1.889-2.064
			C208.381,19.586,207.709,18.577,206.477,18.577z"/>
		<path fill="#FFFFFF" d="M217.661,24.627l-1.713-2.449l-1.761,2.449h-3.041l3.186-4.178l-2.882-3.793h3.058l1.488,2.129
			l1.505-2.129h2.961l-2.865,3.793l3.153,4.178H217.661z"/>
		<path fill="#FFFFFF" d="M229.74,24.883c-2.4,0-4.418-1.664-4.418-4.273c0-2.609,2.018-4.209,4.418-4.209
			c2.417,0,4.434,1.601,4.434,4.209C234.174,23.219,232.157,24.883,229.74,24.883z M229.74,18.577c-1.232,0-1.873,1.009-1.873,2.033
			c0,1.025,0.656,2.064,1.889,2.064s1.889-1.039,1.889-2.064C231.645,19.586,230.973,18.577,229.74,18.577z"/>
		<path fill="#FFFFFF" d="M241.068,24.627v-4.354c0-0.881-0.239-1.68-1.184-1.68c-0.929,0-1.408,0.799-1.408,1.713v4.32h-2.642
			v-7.971h2.545v1.104h0.032c0.368-0.704,1.28-1.328,2.385-1.328c2.145,0,2.913,1.665,2.913,3.265v4.93H241.068z"/>
		<path fill="#FFFFFF" d="M249.835,24.627V13.294h2.753v8.948h4.386v2.385H249.835z"/>
		<path fill="#FFFFFF" d="M259.451,15.552c-0.849,0-1.505-0.657-1.505-1.441c0-0.768,0.656-1.44,1.505-1.44
			c0.832,0,1.505,0.641,1.505,1.44C260.956,14.927,260.283,15.552,259.451,15.552z M258.139,24.627v-7.971h2.625v7.971H258.139z"/>
		<path fill="#FFFFFF" d="M268.076,24.627v-4.354c0-0.881-0.24-1.68-1.185-1.68c-0.929,0-1.409,0.799-1.409,1.713v4.32h-2.641
			v-7.971h2.545v1.104h0.032c0.368-0.704,1.28-1.328,2.385-1.328c2.145,0,2.913,1.665,2.913,3.265v4.93H268.076z"/>
		<path fill="#FFFFFF" d="M281.261,24.627h-3.249l-2.609-3.824h-0.048v3.824h-2.642v-12.1h2.642v7.362h0.048l2.545-3.233h3.186
			l-3.073,3.602L281.261,24.627z"/>
		<path fill="#FFFFFF" d="M289.82,21.361h-5.778c0.08,0.881,0.96,1.506,1.904,1.506c0.832,0,1.408-0.354,1.761-0.832l1.825,1.152
			c-0.753,1.088-2.001,1.695-3.618,1.695c-2.4,0-4.386-1.52-4.386-4.209c0-2.609,1.889-4.274,4.306-4.274
			c2.354,0,4.002,1.617,4.002,4.338C289.836,20.945,289.836,21.17,289.82,21.361z M287.419,19.729c0-0.832-0.528-1.52-1.568-1.52
			c-1.009,0-1.745,0.705-1.809,1.52H287.419z"/>
		<path fill="#FFFFFF" d="M297.5,24.627v-1.039h-0.032c-0.512,0.799-1.552,1.264-2.608,1.264c-2.401,0-3.794-2.018-3.794-4.242
			c0-2.224,1.44-4.177,3.762-4.177c1.169,0,1.984,0.544,2.433,1.072h0.032v-4.978h2.625v12.1H297.5z M295.483,18.577
			c-1.248,0-1.889,1.009-1.889,2.033c0,1.041,0.641,2.064,1.889,2.064c1.185,0,1.921-1.008,1.921-2.049
			C297.404,19.617,296.668,18.577,295.483,18.577z"/>
		<path fill="#FFFFFF" d="M302.138,24.627V13.294h2.753v11.333H302.138z"/>
		<path fill="#FFFFFF" d="M312.315,24.627v-4.354c0-0.881-0.24-1.68-1.185-1.68c-0.929,0-1.409,0.799-1.409,1.713v4.32h-2.641
			v-7.971h2.545v1.104h0.032c0.368-0.704,1.28-1.328,2.385-1.328c2.145,0,2.913,1.665,2.913,3.265v4.93H312.315z"/>
	</g>
	<g>
		<path fill-rule="evenodd" clip-rule="evenodd" fill="#FFFFFF" d="M22.176,27.852v-13.65h-4.535V27.85L22.176,27.852L22.176,27.852
			z M19.908,12.337c1.581,0.001,2.566-1.048,2.566-2.358c-0.029-1.338-0.985-2.357-2.537-2.357c-1.553,0-2.566,1.02-2.566,2.357
			c0,1.311,0.984,2.358,2.507,2.358H19.908L19.908,12.337z"/>
		<path fill-rule="evenodd" clip-rule="evenodd" fill="#FFFFFF" d="M24.688,27.852h4.537v-7.623c0-0.408,0.029-0.816,0.148-1.107
			c0.328-0.814,1.074-1.659,2.328-1.659c1.643,0,2.299,1.253,2.299,3.087v7.303l4.535-0.002v-7.824c0-4.193-2.236-6.146-5.223-6.145
			c-2.447,0-3.521,1.367-4.119,2.301h0.031v-1.98h-4.537C24.746,15.482,24.688,27.852,24.688,27.852L24.688,27.852z"/>
	</g>
</g>
</svg>
