<?xml version="1.0" encoding="utf-8"?>
<!-- Generator: Adobe Illustrator 16.0.0, SVG Export Plug-In . SVG Version: 6.00 Build 0)  -->
<!DOCTYPE svg PUBLIC "-//W3C//DTD SVG 1.0//EN" "http://www.w3.org/TR/2001/REC-SVG-20010904/DTD/svg10.dtd">
<svg version="1.0" id="Layer_1" xmlns="http://www.w3.org/2000/svg" xmlns:xlink="http://www.w3.org/1999/xlink" x="0px" y="0px"
	 width="199px" height="21px" viewBox="0 0 199 21" enable-background="new 0 0 199 21" xml:space="preserve">
<g>
	<path fill="#19315A" d="M4.374,12.378c0.629,0,1.387,0.344,1.801,0.873l1.558-1.645c-0.886-0.814-2.172-1.244-3.316-1.244
		c-1.886,0-3.916,0.93-3.916,3.174c0,1.83,1.301,2.489,2.587,2.903c1.329,0.43,2.101,0.672,2.101,1.445c0,0.814-0.658,1.1-1.4,1.1
		c-0.801,0-1.701-0.457-2.187-1.072L0,19.543C0.887,20.473,2.344,21,3.788,21c2,0,3.873-1.043,3.873-3.373
		c0-2.017-1.772-2.604-3.145-3.046c-0.958-0.301-1.558-0.516-1.558-1.188C2.958,12.593,3.745,12.378,4.374,12.378z"/>
	<polygon fill="#19315A" points="11.993,16.811 16.195,16.811 16.195,14.852 11.993,14.852 11.993,12.95 16.438,12.95 
		16.438,10.877 9.635,10.877 9.635,21 16.695,21 16.695,18.912 11.993,18.912 	"/>
	<polygon fill="#19315A" points="21.027,16.811 25.229,16.811 25.229,14.852 21.027,14.852 21.027,12.95 25.472,12.95 
		25.472,10.877 18.669,10.877 18.669,21 25.729,21 25.729,18.912 21.027,18.912 	"/>
	<path fill="#19315A" d="M34.38,10.877L30.135,21h2.658l0.743-1.988h3.917L38.238,21h2.716l-4.202-10.123H34.38z M34.237,17.053
		l1.286-3.474l1.258,3.474H34.237z"/>
	<path fill="#19315A" d="M49.375,12.378c0.629,0,1.387,0.344,1.801,0.873l1.558-1.645c-0.886-0.814-2.173-1.244-3.315-1.244
		c-1.887,0-3.916,0.93-3.916,3.174c0,1.83,1.301,2.489,2.586,2.903c1.33,0.43,2.102,0.672,2.102,1.445c0,0.814-0.658,1.1-1.4,1.1
		c-0.801,0-1.701-0.457-2.188-1.072l-1.601,1.631C45.888,20.473,47.345,21,48.789,21c2,0,3.873-1.043,3.873-3.373
		c0-2.017-1.772-2.604-3.145-3.046c-0.957-0.301-1.559-0.516-1.559-1.188C47.959,12.593,48.746,12.378,49.375,12.378z"/>
	<path fill="#19315A" d="M57.637,10.877L53.393,21h2.658l0.743-1.988h3.916L61.496,21h2.715L60.01,10.877H57.637z M57.494,17.053
		l1.286-3.474l1.258,3.474H57.494z"/>
	<polygon fill="#19315A" points="71.244,17.367 71.188,17.367 68.887,10.877 65.414,10.877 65.414,21 67.715,21 67.658,13.836 
		67.701,13.836 70.259,21 71.975,21 74.604,13.836 74.646,13.836 74.59,21 76.977,21 76.977,10.877 73.446,10.877 	"/>
	<path fill="#19315A" d="M83.139,10.877h-3.717V21h2.445v-3.818h1.215c2.114,0,4.016-0.844,4.016-3.188
		C87.098,11.678,85.354,10.877,83.139,10.877z M82.896,15.238h-1.028V12.85h1.071c0.872,0,1.715,0.186,1.715,1.158
		C84.653,14.966,83.811,15.238,82.896,15.238z"/>
	<polygon fill="#19315A" points="91.387,10.877 88.93,10.877 88.93,21 95.303,21 95.303,18.869 91.387,18.869 	"/>
	<polygon fill="#19315A" points="99.163,16.811 103.365,16.811 103.365,14.852 99.163,14.852 99.163,12.95 103.607,12.95 
		103.607,10.877 96.805,10.877 96.805,21 103.865,21 103.865,18.912 99.163,18.912 	"/>
	<path fill="#19315A" d="M117.503,13.937c0-2.316-1.93-3.06-3.874-3.06h-3.857V21h2.4v-4.018H113L115.188,21h2.858l-2.644-4.332
		C116.703,16.268,117.503,15.295,117.503,13.937z M113.314,15.209h-1.156V12.85h1.3c0.729,0,1.63,0.186,1.63,1.13
		C115.088,15.009,114.102,15.209,113.314,15.209z"/>
	<polygon fill="#19315A" points="121.964,16.811 126.165,16.811 126.165,14.852 121.964,14.852 121.964,12.95 126.408,12.95 
		126.408,10.877 119.605,10.877 119.605,21 126.665,21 126.665,18.912 121.964,18.912 	"/>
	<path fill="#19315A" d="M132.356,10.877h-3.716V21h2.443v-3.818h1.215c2.115,0,4.017-0.844,4.017-3.188
		C136.315,11.678,134.57,10.877,132.356,10.877z M132.112,15.238h-1.028V12.85h1.071c0.873,0,1.716,0.186,1.716,1.158
		C133.871,14.966,133.028,15.238,132.112,15.238z"/>
	<path fill="#19315A" d="M143.177,10.334c-3.159,0-5.502,2.045-5.502,5.29c0,3.202,2.343,5.376,5.502,5.376
		c3.173,0,5.518-2.174,5.518-5.376C148.694,12.379,146.35,10.334,143.177,10.334z M143.177,18.77c-1.7,0-2.887-1.316-2.887-3.146
		c0-1.772,1.173-3.089,2.887-3.089c1.716,0,2.901,1.316,2.901,3.089C146.078,17.453,144.878,18.77,143.177,18.77z"/>
	<path fill="#19315A" d="M158.401,13.937c0-2.316-1.93-3.06-3.874-3.06h-3.858V21h2.401v-4.018h0.828L156.086,21h2.858l-2.645-4.332
		C157.601,16.268,158.401,15.295,158.401,13.937z M154.213,15.209h-1.157V12.85h1.301c0.729,0,1.629,0.186,1.629,1.13
		C155.985,15.009,154.999,15.209,154.213,15.209z"/>
	<polygon fill="#19315A" points="159.36,12.965 162.219,12.965 162.219,21 164.664,21 164.664,12.965 167.522,12.965 
		167.522,10.877 159.36,10.877 	"/>
	<polygon fill="#19315A" points="196.001,12 196.001,18 179.007,18 179.007,12 176.009,12 176.009,21 199,21 199,12 	"/>
	<polygon fill="#19315A" points="187.434,14.991 189.859,11.496 192.284,8 189.004,8 189.004,0 186.005,0 186.005,8 182.583,8 
		185.009,11.54 	"/>
</g>
</svg>
