<?xml version="1.0" encoding="utf-8"?>
<!-- Generator: Adobe Illustrator 16.0.0, SVG Export Plug-In . SVG Version: 6.00 Build 0)  -->
<!DOCTYPE svg PUBLIC "-//W3C//DTD SVG 1.0//EN" "http://www.w3.org/TR/2001/REC-SVG-20010904/DTD/svg10.dtd">
<svg version="1.0" class="svg" xmlns="http://www.w3.org/2000/svg" xmlns:xlink="http://www.w3.org/1999/xlink" x="0px" y="0px"
	 width="220px" height="215px" viewBox="74.5 142 220 215" enable-background="new 74.5 142 220 215" xml:space="preserve">
<image overflow="visible" enable-background="new    " width="428" height="320" id="iStock_x5F_000018534565Medium.psd" xlink:href="/Portals/_default/Skins/edox/images/linkimg/large.laptop.files.png"  transform="matrix(0.5 0 0 0.5 77.3022 184.9053)">
</image>
<circle opacity="0.6" fill="#0583B6" enable-background="new    " cx="229.85" cy="292.512" r="53.625"/>
<path fill="#FFFFFF" d="M253.125,300.396c7.771-7.773,7.773-20.38,0-28.156c-7.781-7.773-20.384-7.773-28.154,0.005
	c-6.538,6.534-7.574,16.477-3.124,24.104l-19.099,19.094l7.176,7.173l19.096-19.096
	C236.645,307.972,246.589,306.931,253.125,300.396z M229.604,295.764c-5.215-5.219-5.215-13.672,0-18.888
	c5.211-5.215,13.666-5.215,18.888,0c5.212,5.216,5.212,13.669,0,18.888C243.27,300.977,234.814,300.977,229.604,295.764z"/>
</svg>
