<?xml version="1.0" encoding="utf-8"?>
<!-- Generator: Adobe Illustrator 16.0.0, SVG Export Plug-In . SVG Version: 6.00 Build 0)  -->
<!DOCTYPE svg PUBLIC "-//W3C//DTD SVG 1.0//EN" "http://www.w3.org/TR/2001/REC-SVG-20010904/DTD/svg10.dtd">
<svg version="1.0" class="svg" xmlns="http://www.w3.org/2000/svg" xmlns:xlink="http://www.w3.org/1999/xlink" x="0px" y="0px"
	 width="220px" height="215px" viewBox="0 0 220 215" enable-background="new 0 0 220 215" xml:space="preserve">
<image overflow="visible" width="498" height="374" id="iStock_x5F_000017378621Medium.psd" xlink:href="/Portals/_default/Skins/edox/images/linkimg/large.paper.plane.png"  transform="matrix(0.5 0 0 0.5 -25.5195 37.3271)">
</image>
<circle opacity="0.6" fill="#0583B6" cx="160.11" cy="121.5" r="53.625"/>
<path fill="#FFFFFF" d="M196.217,127.744l-10.197-26.217c-0.19-0.496-0.654-0.822-1.179-0.852c0.383,0.027,0.761,0.08,1.133,0.162
	c2.071,0.461,3.636,1.762,4.654,3.867c0.23,0.477,0.709,0.756,1.209,0.756c0.194,0,0.394-0.043,0.581-0.133
	c0.667-0.324,0.946-1.125,0.625-1.791c-1.374-2.838-3.617-4.678-6.486-5.316c-3.96-0.883-8.148,0.68-10.537,2.621
	c-1.562,1.27-4.75,1.668-7.758,0.973c-2.344-0.543-4.222-1.68-5.357-3.182v-9.441c0-1.486-1.206-2.691-2.692-2.691
	c-1.488,0-2.692,1.205-2.692,2.691v9.758c-1.155,1.346-2.942,2.359-5.12,2.865c-3.005,0.695-6.195,0.297-7.758-0.973
	c-2.389-1.941-6.575-3.504-10.538-2.621c-2.868,0.639-5.111,2.479-6.483,5.316c-0.323,0.666-0.042,1.469,0.622,1.791
	c0.188,0.09,0.389,0.133,0.584,0.133c0.496,0,0.976-0.279,1.209-0.756c1.017-2.105,2.582-3.406,4.65-3.867
	c0.586-0.131,1.196-0.17,1.806-0.166c-0.521,0.027-1.013,0.322-1.223,0.812l-11.254,26.215c-0.074,0.17-0.101,0.352-0.101,0.531
	h-0.003c0,0,0.003,0.02,0.003,0.021c0.003,0.152,0.026,0.305,0.082,0.451c0.429,2.137,2.761,10.848,12.175,10.848
	c8.889,0,11.039-7.754,11.517-10.42c0.044-0.047,0.088-0.088,0.126-0.141c0.249-0.365,0.305-0.834,0.143-1.246l-10.198-26.217
	c-0.19-0.498-0.664-0.828-1.195-0.855c2.421,0.045,4.895,1.039,6.39,2.252c2.193,1.785,6.229,2.389,10.054,1.502
	c1.711-0.396,3.231-1.068,4.514-1.943v44.596h-4.039v4.037h-4.039v2.691h-2.692v2.693h3.081h19.661h4.192v-2.693h-3.061v-2.691
	h-3.688v-4.037h-4.03v-44.754c1.327,0.957,2.938,1.68,4.753,2.102c3.818,0.885,7.858,0.283,10.052-1.502
	c1.625-1.32,4.414-2.396,7.031-2.248c-0.497,0.029-1.003,0.32-1.211,0.809l-11.255,26.215c-0.074,0.17-0.098,0.352-0.098,0.531
	h-0.003c0,0,0.003,0.012,0.003,0.014c0,0.158,0.023,0.314,0.082,0.463c0.432,2.146,2.77,10.844,12.173,10.844
	c8.884,0,11.035-7.748,11.516-10.416c0.044-0.047,0.092-0.092,0.127-0.145C196.327,128.625,196.379,128.156,196.217,127.744z
	 M144.733,126.885h-17.438l9.148-21.314L144.733,126.885z M184.705,105.57l8.291,21.314h-17.44L184.705,105.57z"/>
</svg>
