<?xml version="1.0" encoding="utf-8"?>
<!-- Generator: Adobe Illustrator 16.0.0, SVG Export Plug-In . SVG Version: 6.00 Build 0)  -->
<!DOCTYPE svg PUBLIC "-//W3C//DTD SVG 1.0//EN" "http://www.w3.org/TR/2001/REC-SVG-20010904/DTD/svg10.dtd">
<svg version="1.0" class="svg" xmlns="http://www.w3.org/2000/svg" xmlns:xlink="http://www.w3.org/1999/xlink" x="0px" y="0px"
	 width="220px" height="215px" viewBox="0 0 220 215" enable-background="new 0 0 220 215" xml:space="preserve">
<image overflow="visible" width="384" height="408" id="iStock_x5F_000001825385Medium.psd_1_" xlink:href="/Portals/_default/Skins/edox/images/linkimg/large.clipboard.png"  transform="matrix(0.5 0 0 0.5 -11.0659 -1.2998)">
</image>
<circle opacity="0.6" fill="#0583B6" cx="153" cy="148.508" r="53.625"/>
<g>
	<path fill="#FFFFFF" d="M153.17,143.506c-2.674,0-4.838,2.16-4.838,4.83c0,2.055,1.283,3.797,3.09,4.494v25.027h3.492V152.83
		c1.258-0.49,2.256-1.49,2.744-2.75h16.635v-3.488h-16.635C156.955,144.791,155.217,143.506,153.17,143.506z"/>
	<path fill="#FFFFFF" d="M153,108.714c-21.941,0-39.795,17.851-39.795,39.798c0,21.939,17.854,39.789,39.795,39.789
		s39.795-17.85,39.795-39.789C192.795,126.564,174.941,108.714,153,108.714z M153,185.156c-20.207,0-36.648-16.439-36.648-36.645
		c0-20.211,16.441-36.653,36.648-36.653s36.646,16.442,36.646,36.653C189.646,168.717,173.207,185.156,153,185.156z"/>
</g>
</svg>
