<?xml version="1.0" encoding="utf-8"?>
<!-- Generator: Adobe Illustrator 16.0.0, SVG Export Plug-In . SVG Version: 6.00 Build 0)  -->
<!DOCTYPE svg PUBLIC "-//W3C//DTD SVG 1.0//EN" "http://www.w3.org/TR/2001/REC-SVG-20010904/DTD/svg10.dtd">
<svg version="1.0" class="svg" xmlns="http://www.w3.org/2000/svg" xmlns:xlink="http://www.w3.org/1999/xlink" x="0px" y="0px"
	 width="220px" height="215px" viewBox="0 0 220 215" enable-background="new 0 0 220 215" xml:space="preserve">
<image overflow="visible" width="474" height="316" id="iStock_x5F_000003027193Medium.psd" xlink:href="/Portals/_default/Skins/edox/images/linkimg/large.briefcase.png"  transform="matrix(0.5 0 0 0.5 -19.7788 40.9028)">
</image>
<circle opacity="0.6" fill="#0583B6" cx="150.345" cy="150.511" r="53.625"/>
<path fill="#FFFFFF" d="M157,169.624c-0.592-0.236-1.223-0.356-1.876-0.356c-1.473,0-2.739,0.598-3.478,1.042
	c-1.766-1.052-7.375-5.486-7.375-19.313c0-13.789,4.356-17.258,5.562-17.954c0.626,0.22,1.729,0.512,3.179,0.512
	c0.6,0,1.208-0.051,1.812-0.151c0.843-0.141,1.619-0.768,2.371-1.917c2.539-3.873,4.896-13.901,4.384-15.951
	c-0.607-2.426-5.232-3.863-6.636-4.246l-0.242-0.065l-0.248,0.035c-0.299,0.043-7.333,1.092-10.009,5.375
	c-2.73,4.367-7.893,17.27-7.893,34.846c0,15.983,5.372,25.985,8.259,31.358c0.391,0.725,0.736,1.371,1.022,1.941
	c2.265,4.529,8.803,5.019,11.509,5.019c0.455,0,0.722-0.016,0.722-0.016l0.199-0.012l5.609-2.242l0.128-0.644
	C165.023,181.768,160.164,170.891,157,169.624z"/>
</svg>
