<?xml version="1.0" encoding="utf-8"?>
<!-- Generator: Adobe Illustrator 16.0.0, SVG Export Plug-In . SVG Version: 6.00 Build 0)  -->
<!DOCTYPE svg PUBLIC "-//W3C//DTD SVG 1.0//EN" "http://www.w3.org/TR/2001/REC-SVG-20010904/DTD/svg10.dtd">
<svg version="1.0" id="Layer_1" xmlns="http://www.w3.org/2000/svg" xmlns:xlink="http://www.w3.org/1999/xlink" x="0px" y="0px"
	 width="220px" height="215px" viewBox="0 0 220 215" enable-background="new 0 0 220 215" xml:space="preserve">
<image overflow="visible" width="400" height="434" id="iStock_x5F_000015565812Medium.psd_1_" xlink:href="/Portals/_default/Skins/edox/images/linkimg/large.stopwatch.png"  transform="matrix(0.5 0 0 0.5 -4.873 2.8706)">
</image>
<circle opacity="0.6" fill="#0583B6" cx="157.162" cy="150.511" r="53.626"/>
<path fill="#FFFFFF" d="M182.444,127.339l-4.945,4.947c11.113,11.115,11.113,29.201,0,40.316c-11.117,11.117-29.203,11.115-40.318,0
	c-11.117-11.115-11.113-29.201,0-40.316c6.084-6.084,14.25-8.82,22.225-8.246l-3.395,7.727l9.475-5.811l9.471-5.807l-9.764-5.293
	l-9.76-5.295l3.756,7.467c-9.697-0.504-19.561,2.922-26.953,10.311c-13.844,13.842-13.844,36.367-0.002,50.211
	c13.844,13.842,36.367,13.844,50.211,0S196.288,141.181,182.444,127.339z"/>
</svg>
