<?xml version="1.0" encoding="utf-8"?>
<!-- Generator: Adobe Illustrator 16.0.0, SVG Export Plug-In . SVG Version: 6.00 Build 0)  -->
<!DOCTYPE svg PUBLIC "-//W3C//DTD SVG 1.0//EN" "http://www.w3.org/TR/2001/REC-SVG-20010904/DTD/svg10.dtd">
<svg version="1.0" id="Layer_1" xmlns="http://www.w3.org/2000/svg" xmlns:xlink="http://www.w3.org/1999/xlink" x="0px" y="0px"
	 width="108px" height="45px" viewBox="0 0 108 45" enable-background="new 0 0 108 45" xml:space="preserve">
<g>
	<path fill="#0583B6" d="M94.411,28.02l-0.288-0.224c-0.364-0.284-0.82-0.441-1.283-0.441c-0.646,0-1.245,0.29-1.641,0.793
		L80.691,41.427c-0.708,0.896-0.551,2.202,0.354,2.909l0.286,0.221C81.698,44.841,82.153,45,82.617,45
		c0.644,0,1.243-0.291,1.641-0.793l10.506-13.28c0.345-0.436,0.496-0.978,0.429-1.526C95.127,28.851,94.85,28.361,94.411,28.02z"/>
	<path fill="#19315A" d="M99.834,24.262l7.721-9.779c0.345-0.435,0.496-0.978,0.43-1.526s-0.344-1.039-0.783-1.381l-0.287-0.223
		c-0.365-0.285-0.821-0.441-1.284-0.441c-0.646,0-1.244,0.289-1.641,0.794l-7.036,8.911l-7.034-8.909
		c-0.397-0.507-0.995-0.795-1.642-0.795c-0.463,0-0.919,0.157-1.284,0.441l-0.287,0.223c-0.438,0.342-0.716,0.833-0.783,1.381
		c-0.066,0.549,0.085,1.091,0.43,1.526l17.637,22.339c0.398,0.503,0.996,0.792,1.641,0.792c0.463,0,0.92-0.157,1.284-0.44
		l0.288-0.225c0.905-0.705,1.063-2.008,0.353-2.906L99.834,24.262z"/>
	<path fill="#19315A" d="M13.447,10.886c-3.697,0-6.895,1.315-9.507,3.912C1.325,17.391,0,20.569,0,24.241
		c0,3.673,1.325,6.849,3.939,9.445c2.612,2.595,5.812,3.91,9.507,3.91c3.329,0,6.279-1.083,8.767-3.222l0.049-0.046
		c0.36-0.382,0.543-0.861,0.543-1.424c0-0.57-0.2-1.063-0.598-1.469c-0.397-0.402-0.907-0.614-1.477-0.614
		c-0.491,0-0.933,0.156-1.322,0.478c-0.82,0.701-1.736,1.244-2.726,1.615c-0.984,0.371-2.073,0.558-3.237,0.558
		c-2.582,0-4.729-0.887-6.566-2.71c-1.189-1.182-2.032-2.677-2.512-4.46h20.45c0.568,0,1.078-0.208,1.472-0.601
		c0.396-0.393,0.604-0.898,0.604-1.461c0-3.671-1.325-6.849-3.939-9.443C20.343,12.201,17.145,10.886,13.447,10.886z M13.447,15.008
		c2.583,0,4.73,0.886,6.566,2.711c1.203,1.194,2.041,2.692,2.499,4.46H4.369c0.48-1.782,1.323-3.279,2.512-4.46
		C8.718,15.895,10.865,15.008,13.447,15.008z M54.047,0c-0.566,0-1.078,0.206-1.476,0.592c-0.408,0.392-0.624,0.9-0.624,1.469
		v12.505c-2.568-2.443-5.687-3.68-9.272-3.68c-3.697,0-6.896,1.315-9.509,3.912c-2.612,2.594-3.938,5.772-3.938,9.443
		c0,3.671,1.326,6.849,3.938,9.445c2.614,2.595,5.813,3.91,9.509,3.91c3.696,0,6.896-1.315,9.509-3.91
		c2.613-2.599,3.938-5.774,3.938-9.445V2.061c0-0.565-0.21-1.072-0.604-1.461C55.123,0.208,54.614,0,54.047,0z M42.675,33.473
		c-2.581,0-4.73-0.887-6.566-2.709c-1.835-1.825-2.729-3.958-2.729-6.522c0-2.565,0.894-4.698,2.729-6.521
		c1.836-1.825,3.985-2.711,6.566-2.711s4.73,0.886,6.566,2.711c1.821,1.807,2.707,3.941,2.707,6.521c0,2.58-0.886,4.714-2.707,6.522
		C47.405,32.586,45.258,33.473,42.675,33.473z M85.35,24.241c0-3.672-1.325-6.849-3.938-9.443c-2.612-2.597-5.812-3.912-9.51-3.912
		c-3.698,0-6.898,1.316-9.51,3.912c-2.613,2.593-3.937,5.771-3.937,9.443c0,3.673,1.323,6.851,3.937,9.445
		c2.612,2.595,5.812,3.91,9.51,3.91c3.695,0,6.896-1.315,9.51-3.91C84.024,31.09,85.35,27.914,85.35,24.241z M71.902,33.473
		c-2.583,0-4.729-0.887-6.565-2.709c-1.838-1.825-2.731-3.958-2.731-6.522s0.894-4.698,2.731-6.521
		c1.836-1.825,3.982-2.711,6.565-2.711c2.582,0,4.729,0.886,6.565,2.711c1.821,1.808,2.707,3.941,2.707,6.521
		c0,2.58-0.886,4.714-2.707,6.522C76.633,32.586,74.484,33.473,71.902,33.473z"/>
</g>
</svg>
