<?xml version="1.0" encoding="utf-8"?>
<!-- Generator: Adobe Illustrator 16.0.0, SVG Export Plug-In . SVG Version: 6.00 Build 0)  -->
<!DOCTYPE svg PUBLIC "-//W3C//DTD SVG 1.0//EN" "http://www.w3.org/TR/2001/REC-SVG-20010904/DTD/svg10.dtd">
<svg version="1.0" id="Layer_1" xmlns="http://www.w3.org/2000/svg" xmlns:xlink="http://www.w3.org/1999/xlink" x="0px" y="0px"
	 width="145px" height="140px" viewBox="0 0 145 140" enable-background="new 0 0 145 140" xml:space="preserve">
<g opacity="0.6">
	<path fill="#0583B6" d="M91.769,55.203c-19.999,0-36.211,16.215-36.211,36.215s16.212,36.213,36.211,36.213
		c20.001,0,36.215-16.213,36.215-36.213S111.77,55.203,91.769,55.203z"/>
</g>
<image overflow="visible" width="202" height="304" id="iStock_x5F_000019501905Medium.psd" xlink:href="/Portals/_default/Skins/edox/images/linkimg/medium.light.bulb.png"  transform="matrix(0.5 0 0 0.5 5.1445 -12.0405)">
</image>
<path fill="#FFFFFF" d="M115.85,100.416c-7.658-8.279-15.758-12.475-24.07-12.475c-14.141,0-23.609,12.066-24.004,12.578
	l-0.852,1.104l1.035,0.93c7.977,7.152,16.211,10.777,24.469,10.777c14.098,0,23.094-10.482,23.469-10.926l0.854-1.016
	L115.85,100.416z M92.428,110.328c-7.123,0-14.305-3.043-21.357-9.045c2.578-2.836,10.375-10.34,20.709-10.34
	c7.102,0,14.129,3.529,20.902,10.494C110.178,103.926,102.729,110.328,92.428,110.328z M91.855,92.916
	c4.264,0,7.719,3.455,7.719,7.719s-3.455,7.719-7.719,7.719c-4.266,0-7.719-3.455-7.719-7.719S87.59,92.916,91.855,92.916z
	 M93.355,84.115h-3.002V69.4h3.002V84.115z M103.213,86.865l-2.703-1.301l6.791-14.111l2.705,1.301L103.213,86.865z M80.498,86.865
	l-6.793-14.111l2.707-1.301l6.791,14.111L80.498,86.865z"/>
</svg>
