<?xml version="1.0" encoding="utf-8"?>
<!-- Generator: Adobe Illustrator 16.0.0, SVG Export Plug-In . SVG Version: 6.00 Build 0)  -->
<!DOCTYPE svg PUBLIC "-//W3C//DTD SVG 1.0//EN" "http://www.w3.org/TR/2001/REC-SVG-20010904/DTD/svg10.dtd">
<svg version="1.0" class="svg" xmlns="http://www.w3.org/2000/svg" xmlns:xlink="http://www.w3.org/1999/xlink" x="0px" y="0px"
	 width="145px" height="140px" viewBox="0 0 145 140" enable-background="new 0 0 145 140" xml:space="preserve">
<g id="iStock_x5F_000021664097Medium.psd_2_">
	
		<image overflow="visible" width="272" height="272" id="iStock_x5F_000021664097Medium.psd_9_" xlink:href="/Portals/_default/Skins/edox/images/linkimg/medium.tools.png"  transform="matrix(0.5 0 0 0.5 1.8682 3.1543)">
	</image>
</g>
<g opacity="0.6">
	<path fill="#0583B6" d="M102.133,63.276c-19.848,0-35.934,16.09-35.934,35.935c0,19.846,16.086,35.934,35.934,35.934
		c19.846,0,35.932-16.088,35.932-35.934C138.064,79.366,121.979,63.276,102.133,63.276z"/>
</g>
<g>
	<circle fill="#FFFFFF" cx="92.947" cy="84.482" r="3.545"/>
	<circle fill="#FFFFFF" cx="111.317" cy="84.482" r="3.545"/>
	<path fill="#FFFFFF" d="M119.901,102.109L119.901,102.109c0,9.814-7.957,17.771-17.771,17.771s-17.771-7.957-17.771-17.771l0,0
		h-3.562l0,0c0,11.783,9.552,21.334,21.332,21.334c11.783,0,21.335-9.551,21.335-21.334l0,0H119.901z"/>
</g>
</svg>
