<?xml version="1.0" encoding="utf-8"?>
<!-- Generator: Adobe Illustrator 16.0.0, SVG Export Plug-In . SVG Version: 6.00 Build 0)  -->
<!DOCTYPE svg PUBLIC "-//W3C//DTD SVG 1.0//EN" "http://www.w3.org/TR/2001/REC-SVG-20010904/DTD/svg10.dtd">
<svg version="1.0" class="svg" xmlns="http://www.w3.org/2000/svg" xmlns:xlink="http://www.w3.org/1999/xlink" x="0px" y="0px"
	 width="145px" height="140px" viewBox="0 0 145 140" enable-background="new 0 0 145 140" xml:space="preserve">
<image overflow="visible" width="268" height="284" id="iStock_x5F_000001825385Medium.psd_2_" xlink:href="/Portals/_default/Skins/edox/images/linkimg/medium.clipboard.png"  transform="matrix(0.5 0 0 0.5 -8.0454 -4.8765)">
</image>
<g opacity="0.6">
	<path fill="#0583B6" d="M100.457,64.817c-19.848,0-35.934,16.09-35.934,35.934c0,19.846,16.086,35.934,35.934,35.934
		c19.846,0,35.932-16.088,35.932-35.934C136.389,80.907,120.303,64.817,100.457,64.817z"/>
</g>
<path fill="#FFFFFF" d="M115.818,110.071c2.692-2.412,4.305-5.479,4.305-8.812c0-7.797-8.788-14.113-19.623-14.113
	c-10.837,0-19.622,6.316-19.622,14.113c0,7.795,8.785,14.113,19.622,14.113c3.216,0,6.252-0.559,8.928-1.547l9.345,3.777
	L115.818,110.071z"/>
</svg>
