<?xml version="1.0" encoding="utf-8"?>
<!-- Generator: Adobe Illustrator 16.0.0, SVG Export Plug-In . SVG Version: 6.00 Build 0)  -->
<!DOCTYPE svg PUBLIC "-//W3C//DTD SVG 1.0//EN" "http://www.w3.org/TR/2001/REC-SVG-20010904/DTD/svg10.dtd">
<svg version="1.0" class="svg" xmlns="http://www.w3.org/2000/svg" xmlns:xlink="http://www.w3.org/1999/xlink" x="0px" y="0px"
	 width="145px" height="140px" viewBox="0 0 145 140" enable-background="new 0 0 145 140" xml:space="preserve">
<g id="iStock_x5F_000015565812Medium.psd">
	
		<image overflow="visible" width="270" height="286" id="iStock_x5F_000015565812Medium.psd_2_" xlink:href="/Portals/_default/Skins/edox/images/linkimg/medium.stopwatch.png"  transform="matrix(0.5 0 0 0.5 -6.1436 1.3208)">
	</image>
</g>
<g opacity="0.6">
	<path fill="#0583B6" d="M103.134,63.276c-19.848,0-35.934,16.09-35.934,35.935c0,19.846,16.086,35.934,35.934,35.934
		c19.846,0,35.932-16.088,35.932-35.934C139.065,79.366,122.979,63.276,103.134,63.276z"/>
</g>
<path fill="#FFFFFF" d="M120.244,104.248c5.682-5.678,5.686-14.898,0-20.58c-5.688-5.682-14.898-5.682-20.578,0.002
	c-4.779,4.777-5.535,12.045-2.285,17.621L83.424,115.25l5.244,5.242l13.955-13.959C108.197,109.787,115.469,109.023,120.244,104.248
	z M103.051,100.861c-3.811-3.814-3.811-9.996,0-13.805c3.809-3.812,9.99-3.812,13.807,0c3.814,3.809,3.814,9.99,0,13.805
	C113.041,104.674,106.859,104.674,103.051,100.861z"/>
</svg>
