<?xml version="1.0" encoding="utf-8"?>
<!-- Generator: Adobe Illustrator 16.0.0, SVG Export Plug-In . SVG Version: 6.00 Build 0)  -->
<!DOCTYPE svg PUBLIC "-//W3C//DTD SVG 1.0//EN" "http://www.w3.org/TR/2001/REC-SVG-20010904/DTD/svg10.dtd">
<svg version="1.0" class="svg" xmlns="http://www.w3.org/2000/svg" xmlns:xlink="http://www.w3.org/1999/xlink" x="0px" y="0px"
	 width="145px" height="140px" viewBox="0 0 145 140" enable-background="new 0 0 145 140" xml:space="preserve">
<g id="iStock_x5F_000012094517XSmall.psd_1_">
	
		<image overflow="visible" width="254" height="254" id="iStock_x5F_000012094517XSmall.psd_2_" xlink:href="/Portals/_default/Skins/edox/images/linkimg/medium.file.cabinet.png"  transform="matrix(0.5 0 0 0.5 -6.8174 5.5317)">
	</image>
</g>
<g opacity="0.6">
	<path fill="#0583B6" d="M96.127,60.273c-19.848,0-35.934,16.09-35.934,35.935c0,19.846,16.086,35.934,35.934,35.934
		c19.846,0,35.932-16.088,35.932-35.934C132.059,76.363,115.973,60.273,96.127,60.273z"/>
</g>
<path fill="#FFFFFF" d="M104.974,112.976c-9.26,0-16.766-7.508-16.766-16.766c0-9.262,7.506-16.768,16.766-16.768
	c1.908,0,3.734,0.336,5.442,0.92c-3.436-2.709-7.768-4.33-12.481-4.33c-11.144,0-20.178,9.033-20.178,20.178
	c0,11.143,9.034,20.174,20.178,20.174c4.714,0,9.046-1.621,12.479-4.328C108.708,112.64,106.882,112.976,104.974,112.976z"/>
</svg>
