<?xml version="1.0" encoding="utf-8"?>
<!-- Generator: Adobe Illustrator 16.0.0, SVG Export Plug-In . SVG Version: 6.00 Build 0)  -->
<!DOCTYPE svg PUBLIC "-//W3C//DTD SVG 1.0//EN" "http://www.w3.org/TR/2001/REC-SVG-20010904/DTD/svg10.dtd">
<svg version="1.0" class="svg" xmlns="http://www.w3.org/2000/svg" xmlns:xlink="http://www.w3.org/1999/xlink" x="0px" y="0px"
	 width="145px" height="140px" viewBox="0 0 145 140" enable-background="new 0 0 145 140" xml:space="preserve">
<image overflow="visible" width="362" height="240" id="iStock_x5F_000006399293Medium.psd" xlink:href="/Portals/_default/Skins/edox/images/linkimg/medium.magnify.glass.png"  transform="matrix(0.5 0 0 0.5 -11.9956 8.6284)">
</image>
<g opacity="0.6">
	<path fill="#0583B6" d="M106.133,58.046c-19.848,0-35.934,16.09-35.934,35.934c0,19.846,16.086,35.934,35.934,35.934
		c19.846,0,35.932-16.088,35.932-35.934C142.064,74.137,125.979,58.046,106.133,58.046z"/>
</g>
<path fill="#FFFFFF" d="M130.279,99.064l-6.82-17.532c-0.127-0.331-0.438-0.55-0.788-0.569c0.256,0.018,0.509,0.053,0.758,0.109
	c1.385,0.307,2.432,1.177,3.112,2.584c0.154,0.32,0.475,0.508,0.809,0.508c0.13,0,0.264-0.03,0.389-0.091
	c0.446-0.216,0.633-0.751,0.418-1.197c-0.919-1.899-2.419-3.128-4.338-3.556c-2.648-0.59-5.449,0.455-7.047,1.754
	c-1.045,0.85-3.177,1.115-5.188,0.649c-1.567-0.363-2.823-1.124-3.583-2.128v-6.313c0-0.995-0.807-1.801-1.801-1.801
	s-1.801,0.806-1.801,1.801v6.526c-0.771,0.899-1.967,1.577-3.424,1.915c-2.01,0.466-4.143,0.2-5.188-0.649
	c-1.598-1.299-4.398-2.344-7.049-1.754c-1.918,0.428-3.418,1.656-4.336,3.556c-0.215,0.446-0.027,0.982,0.416,1.197
	c0.127,0.061,0.26,0.091,0.391,0.091c0.332,0,0.652-0.188,0.809-0.508c0.68-1.407,1.727-2.277,3.111-2.584
	c0.391-0.089,0.799-0.115,1.207-0.111c-0.35,0.018-0.678,0.213-0.818,0.541l-7.525,17.533c-0.051,0.114-0.068,0.236-0.068,0.355
	h-0.002c0,0,0.002,0.012,0.002,0.014c0.002,0.102,0.018,0.205,0.055,0.303c0.287,1.429,1.848,7.255,8.143,7.255
	c5.945,0,7.383-5.187,7.703-6.969c0.029-0.03,0.059-0.06,0.084-0.095c0.166-0.244,0.203-0.557,0.096-0.834l-6.82-17.532
	c-0.129-0.334-0.445-0.556-0.801-0.571c1.619,0.028,3.273,0.693,4.273,1.506c1.467,1.192,4.166,1.596,6.725,1.004
	c1.145-0.266,2.16-0.715,3.018-1.3v29.823h-2.701v2.701h-2.701v1.801h-1.801v1.801h2.061h13.149h2.804v-1.801h-2.047v-1.801h-2.467
	v-2.701H108V82.065c0.888,0.64,1.965,1.123,3.179,1.405c2.554,0.592,5.256,0.188,6.723-1.004c1.087-0.884,2.952-1.604,4.702-1.504
	c-0.332,0.02-0.671,0.215-0.81,0.539l-7.527,17.533c-0.05,0.114-0.065,0.236-0.065,0.355h-0.002c0,0,0.002,0.008,0.002,0.01
	c0,0.105,0.016,0.209,0.055,0.309c0.289,1.436,1.853,7.253,8.142,7.253c5.941,0,7.38-5.183,7.701-6.966
	c0.029-0.032,0.062-0.061,0.085-0.098C130.353,99.654,130.388,99.342,130.279,99.064z M95.848,98.491H84.186l6.119-14.255
	L95.848,98.491z M122.58,84.234l5.545,14.257h-11.664L122.58,84.234z"/>
</svg>
