<?xml version="1.0" encoding="utf-8"?>
<!-- Generator: Adobe Illustrator 16.0.0, SVG Export Plug-In . SVG Version: 6.00 Build 0)  -->
<!DOCTYPE svg PUBLIC "-//W3C//DTD SVG 1.0//EN" "http://www.w3.org/TR/2001/REC-SVG-20010904/DTD/svg10.dtd">
<svg version="1.0" id="Layer_1" xmlns="http://www.w3.org/2000/svg" xmlns:xlink="http://www.w3.org/1999/xlink" x="0px" y="0px"
	 width="145px" height="140px" viewBox="0 0 145 140" enable-background="new 0 0 145 140" xml:space="preserve">
<image overflow="visible" width="276" height="276" id="iStock_x5F_000018649781Medium.psd_4_" xlink:href="/Portals/_default/Skins/edox/images/linkimg/medium.folder.png"  transform="matrix(0.5 0 0 0.5 -6.1284 2.1719)">
</image>
<g opacity="0.6">
	<path fill="#0583B6" d="M93.965,51.533c-19.848,0-35.934,16.09-35.934,35.936c0,19.846,16.086,35.934,35.934,35.934
		c19.846,0,35.932-16.088,35.932-35.934C129.896,67.623,113.811,51.533,93.965,51.533z"/>
</g>
<path fill="#FFFFFF" d="M109.459,68.56l-0.818-0.581c-3.619-2.567-8.65-1.714-11.215,1.904l-3.362,4.742
	c-0.141,0.134-0.335,0.342-0.489,0.558L80.209,94.021c-0.687,0.969-1.006,1.783-1.043,1.871c-0.082,0.212-0.118,0.434-0.111,0.654
	l-1.25,13.209c-0.059,0.609,0.215,1.208,0.718,1.566c0.502,0.357,1.158,0.416,1.719,0.158l12.225-5.619
	c0.113-0.053,0.229-0.119,0.329-0.199c0.753-0.49,1.284-1.305,1.532-1.745l13.307-18.758c0.17-0.233,0.314-0.48,0.438-0.741
	l3.297-4.641C113.932,76.158,113.078,71.127,109.459,68.56z M83.711,108.132l-3.893-2.765l0.971-8.848l5.477,3.888l5.479,3.887
	L83.711,108.132z M106.243,84.172l-13.367,18.837l-11.246-7.98L94.996,76.19c0.141-0.197,0.29-0.371,0.461-0.529l-0.071,0.104
	c2.126-0.033,4.553,0.723,6.75,2.279c2.192,1.557,3.708,3.602,4.38,5.615l0.07-0.1C106.496,83.771,106.38,83.978,106.243,84.172z
	 M109.971,78.787l-2.51,3.544c-0.669-2.018-2.188-4.064-4.385-5.616c-2.189-1.556-4.619-2.312-6.748-2.282l2.513-3.543
	c2.018-2.836,5.982-3.508,8.816-1.495l0.82,0.581C111.312,71.986,111.986,75.95,109.971,78.787z"/>
</svg>
