<?xml version="1.0" encoding="utf-8"?>
<!-- Generator: Adobe Illustrator 16.0.0, SVG Export Plug-In . SVG Version: 6.00 Build 0)  -->
<!DOCTYPE svg PUBLIC "-//W3C//DTD SVG 1.0//EN" "http://www.w3.org/TR/2001/REC-SVG-20010904/DTD/svg10.dtd">
<svg version="1.0" class="svg" xmlns="http://www.w3.org/2000/svg" xmlns:xlink="http://www.w3.org/1999/xlink" x="0px" y="0px"
	 width="145px" height="140px" viewBox="0 0 145 140" enable-background="new 0 0 145 140" xml:space="preserve">
<g id="iStock_x5F_000012094517XSmall.psd_1_">
	
		<image overflow="visible" width="254" height="254" id="iStock_x5F_000012094517XSmall.psd_2_" xlink:href="/Portals/_default/Skins/edox/images/linkimg/medium.file.cabinet.png"  transform="matrix(0.5 0 0 0.5 -6.8174 5.5317)">
	</image>
</g>
<g opacity="0.6">
	<path fill="#0583B6" d="M96.127,60.273c-19.848,0-35.934,16.09-35.934,35.935c0,19.846,16.086,35.934,35.934,35.934
		c19.846,0,35.932-16.088,35.932-35.934C132.059,76.363,115.973,60.273,96.127,60.273z"/>
</g>
<g>
	<path fill="#FFFFFF" d="M96.186,110.971c-2.43,0-4.407,1.977-4.407,4.408c0,2.43,1.978,4.406,4.407,4.406s4.406-1.977,4.406-4.406
		C100.592,112.947,98.615,110.971,96.186,110.971z"/>
	<path fill="#FFFFFF" d="M96.293,75.701c-6.23,0-11.034,4.006-12.24,10.204l-0.291,1.498l6.686,1.181l0.225-1.528
		c0.455-3.094,2.545-5.016,5.461-5.016c2.411,0,5.227,1.271,5.227,4.853c0,1.924-0.745,3.318-2.621,4.855l-1.707,1.338
		C94.592,95.226,92,97.707,92,102.396V107h7v-3.852c0-3.373,0.89-4.174,3.642-6.432c2.575-2.123,5.544-4.529,5.544-10.04
		C108.186,80.215,103.324,75.701,96.293,75.701z"/>
</g>
</svg>
