<?xml version="1.0" encoding="utf-8"?>
<!-- Generator: Adobe Illustrator 16.0.0, SVG Export Plug-In . SVG Version: 6.00 Build 0)  -->
<!DOCTYPE svg PUBLIC "-//W3C//DTD SVG 1.0//EN" "http://www.w3.org/TR/2001/REC-SVG-20010904/DTD/svg10.dtd">
<svg version="1.0" class="svg" xmlns="http://www.w3.org/2000/svg" xmlns:xlink="http://www.w3.org/1999/xlink" x="0px" y="0px"
	 width="145px" height="140px" viewBox="0 0 145 140" enable-background="new 0 0 145 140" xml:space="preserve">
<image overflow="visible" width="252" height="252" id="iStock_x5F_000015484294Medium.psd" xlink:href="/Portals/_default/Skins/edox/images/linkimg/medium.piggy.bank.png"  transform="matrix(0.5 0 0 0.5 2.7852 6.3701)">
</image>
<g opacity="0.6">
	<path fill="#0583B6" d="M99.13,58.271c-19.848,0-35.934,16.09-35.934,35.935c0,19.846,16.086,35.934,35.934,35.934
		c19.846,0,35.932-16.088,35.932-35.934C135.062,74.361,118.976,58.271,99.13,58.271z"/>
</g>
<g>
	<path fill="#FFFFFF" d="M99.235,91.818c-1.66,0-3.004,1.342-3.004,3c0,1.275,0.797,2.357,1.918,2.791v15.543h2.17V97.609
		c0.78-0.305,1.4-0.926,1.704-1.707h10.33v-2.168h-10.33C101.587,92.617,100.507,91.818,99.235,91.818z"/>
	<path fill="#FFFFFF" d="M99.13,70.211c-13.627,0-24.715,11.086-24.715,24.717c0,13.625,11.088,24.711,24.715,24.711
		s24.715-11.086,24.715-24.711C123.845,81.297,112.757,70.211,99.13,70.211z M99.13,117.686c-12.549,0-22.76-10.209-22.76-22.758
		c0-12.553,10.211-22.764,22.76-22.764c12.55,0,22.76,10.211,22.76,22.764C121.89,107.477,111.68,117.686,99.13,117.686z"/>
</g>
</svg>
