<?xml version="1.0" encoding="utf-8"?>
<!-- Generator: Adobe Illustrator 16.0.0, SVG Export Plug-In . SVG Version: 6.00 Build 0)  -->
<!DOCTYPE svg PUBLIC "-//W3C//DTD SVG 1.0//EN" "http://www.w3.org/TR/2001/REC-SVG-20010904/DTD/svg10.dtd">
<svg version="1.0" class="svg" xmlns="http://www.w3.org/2000/svg" xmlns:xlink="http://www.w3.org/1999/xlink" x="0px" y="0px"
	 width="145px" height="140px" viewBox="0 0 145 140" enable-background="new 0 0 145 140" xml:space="preserve">
<g id="iStock_x5F_000021664097Medium.psd_2_">
	
		<image overflow="visible" width="272" height="272" id="iStock_x5F_000021664097Medium.psd_9_" xlink:href="/Portals/_default/Skins/edox/images/linkimg/medium.tools.png"  transform="matrix(0.5 0 0 0.5 1.8682 3.1543)">
	</image>
</g>
<g opacity="0.6">
	<path fill="#0583B6" d="M102.133,63.276c-19.848,0-35.934,16.09-35.934,35.935c0,19.846,16.086,35.934,35.934,35.934
		c19.846,0,35.932-16.088,35.932-35.934C138.064,79.366,121.979,63.276,102.133,63.276z"/>
</g>
<path fill="#FFFFFF" d="M117.41,104.51c5.682-5.679,5.686-14.898,0-20.58c-5.687-5.682-14.898-5.682-20.578,0.001
	c-4.779,4.778-5.535,12.046-2.285,17.622L80.59,115.511l5.244,5.243l13.956-13.959C105.363,110.048,112.636,109.284,117.41,104.51z
	 M100.218,101.122c-3.812-3.813-3.812-9.995,0-13.804c3.808-3.812,9.989-3.812,13.807,0c3.813,3.809,3.813,9.99,0,13.804
	C110.207,104.936,104.025,104.936,100.218,101.122z"/>
</svg>
