<?xml version="1.0" encoding="utf-8"?>
<!-- Generator: Adobe Illustrator 16.0.0, SVG Export Plug-In . SVG Version: 6.00 Build 0)  -->
<!DOCTYPE svg PUBLIC "-//W3C//DTD SVG 1.0//EN" "http://www.w3.org/TR/2001/REC-SVG-20010904/DTD/svg10.dtd">
<svg class="svg" version="1.0" xmlns="http://www.w3.org/2000/svg" xmlns:xlink="http://www.w3.org/1999/xlink" x="0px" y="0px"
	 width="145px" height="140px" viewBox="0 0 145 140" enable-background="new 0 0 145 140" xml:space="preserve">
<image overflow="visible" width="248" height="264" id="iStock_x5F_000007833839Medium.psd" xlink:href="/Portals/_default/Skins/edox/images/linkimg/medium.safe.png"  transform="matrix(0.5 0 0 0.5 -0.1382 3.9614)">
</image>
<g opacity="0.6">
	<path fill="#0583B6" d="M100.922,58.339c-19.999,0-36.211,16.216-36.211,36.215c0,20,16.212,36.213,36.211,36.213
		c20.001,0,36.215-16.213,36.215-36.213C137.137,74.555,120.923,58.339,100.922,58.339z"/>
</g>
<path fill="#FFFFFF" d="M100.239,96.413V76.655l15.316,5.892c0,0,0.687,6.55-0.149,13.866H100.239z M100.239,96.442v19.803
	c-0.015,0-0.025,0.003-0.04,0.003c0,0-12.879,0.222-15.224-19.806H100.239z M100.255,74.218l17.068,6.61
	c0,0,3.967,37.682-17.068,37.682c0,0-0.007,0-0.021,0c-0.747,0-20.383-0.355-17.048-37.682L100.255,74.218 M100.255,70.569
	l-1.226,0.476l-17.07,6.61l-1.971,0.764L79.8,80.523c-1.45,16.226,1.085,28.03,7.536,35.083c5.603,6.127,12.168,6.303,12.897,6.303
	h0.021l0,0c5.226,0,9.597-1.914,12.997-5.689c9.929-11.03,7.56-34.745,7.456-35.748l-0.219-2.066l-1.939-0.75l-17.067-6.61
	L100.255,70.569L100.255,70.569z"/>
</svg>
