<?xml version="1.0" encoding="utf-8"?>
<!-- Generator: Adobe Illustrator 16.0.0, SVG Export Plug-In . SVG Version: 6.00 Build 0)  -->
<!DOCTYPE svg PUBLIC "-//W3C//DTD SVG 1.0//EN" "http://www.w3.org/TR/2001/REC-SVG-20010904/DTD/svg10.dtd">
<svg version="1.0" class="svg" xmlns="http://www.w3.org/2000/svg" xmlns:xlink="http://www.w3.org/1999/xlink" x="0px" y="0px"
	 width="145px" height="140px" viewBox="0 0 145 140" enable-background="new 0 0 145 140" xml:space="preserve">
<g id="iStock_x5F_000018534565Medium2.psd">
	
		<image overflow="visible" width="284" height="214" id="iStock_x5F_000018534565Medium2.psd_2_" xlink:href="/Portals/_default/Skins/edox/images/linkimg/medium.laptop.files.png"  transform="matrix(0.5 0 0 0.5 1.1528 14.4663)">
	</image>
</g>
<g opacity="0.6">
	<path fill="#0583B6" d="M104.135,53.267c-19.848,0-35.934,16.09-35.934,35.936s16.086,35.934,35.934,35.934
		c19.846,0,35.932-16.088,35.932-35.934S123.98,53.267,104.135,53.267z"/>
</g>
<path fill="#FFFFFF" d="M128.647,92.673l-6.82-17.533c-0.127-0.332-0.438-0.551-0.788-0.57c0.256,0.018,0.509,0.053,0.758,0.109
	c1.385,0.307,2.432,1.178,3.112,2.586c0.154,0.318,0.475,0.506,0.809,0.506c0.13,0,0.264-0.029,0.389-0.09
	c0.446-0.217,0.633-0.752,0.418-1.197c-0.919-1.898-2.419-3.129-4.338-3.557c-2.648-0.59-5.449,0.455-7.047,1.754
	c-1.045,0.85-3.177,1.115-5.188,0.65c-1.567-0.363-2.823-1.123-3.583-2.129V66.89c0-0.994-0.807-1.801-1.801-1.801
	c-0.995,0-1.801,0.807-1.801,1.801v6.525c-0.772,0.9-1.968,1.578-3.424,1.916c-2.01,0.465-4.144,0.199-5.188-0.65
	c-1.598-1.299-4.397-2.344-7.048-1.754c-1.918,0.428-3.418,1.658-4.336,3.557c-0.216,0.445-0.028,0.982,0.416,1.197
	c0.126,0.061,0.26,0.09,0.391,0.09c0.332,0,0.652-0.188,0.809-0.506c0.68-1.408,1.727-2.279,3.11-2.586
	c0.392-0.088,0.8-0.115,1.207-0.111c-0.349,0.018-0.677,0.215-0.817,0.543l-7.526,17.531c-0.05,0.115-0.067,0.236-0.067,0.355H80.29
	l0.002,0.014c0.002,0.104,0.018,0.205,0.055,0.303c0.287,1.43,1.847,7.256,8.143,7.256c5.944,0,7.383-5.188,7.702-6.969
	c0.029-0.031,0.059-0.059,0.084-0.096c0.167-0.244,0.204-0.557,0.096-0.832l-6.82-17.533c-0.128-0.334-0.444-0.555-0.8-0.572
	c1.619,0.029,3.273,0.693,4.273,1.506c1.467,1.193,4.166,1.598,6.724,1.004c1.145-0.266,2.161-0.715,3.019-1.299v29.824h-2.701
	v2.699h-2.701v1.801h-1.801v1.801h2.061h13.149h2.804v-1.801h-2.047v-1.801h-2.467v-2.699h-2.695v-29.93
	c0.888,0.639,1.965,1.123,3.179,1.404c2.554,0.592,5.256,0.189,6.723-1.004c1.087-0.883,2.952-1.604,4.702-1.504
	c-0.332,0.02-0.671,0.215-0.81,0.541l-7.527,17.531c-0.05,0.115-0.065,0.236-0.065,0.355h-0.002c0,0,0.002,0.008,0.002,0.01
	c0,0.105,0.016,0.211,0.055,0.309c0.289,1.436,1.853,7.254,8.142,7.254c5.941,0,7.38-5.182,7.701-6.967
	c0.029-0.031,0.062-0.061,0.085-0.098C128.721,93.261,128.756,92.948,128.647,92.673z M94.216,92.099H82.554l6.118-14.256
	L94.216,92.099z M120.948,77.843l5.545,14.256h-11.664L120.948,77.843z"/>
</svg>
