<?xml version="1.0" encoding="utf-8"?>
<!-- Generator: Adobe Illustrator 16.0.0, SVG Export Plug-In . SVG Version: 6.00 Build 0)  -->
<!DOCTYPE svg PUBLIC "-//W3C//DTD SVG 1.0//EN" "http://www.w3.org/TR/2001/REC-SVG-20010904/DTD/svg10.dtd">
<svg version="1.0" class="svg" xmlns="http://www.w3.org/2000/svg" xmlns:xlink="http://www.w3.org/1999/xlink" x="0px" y="0px"
	 width="145px" height="140px" viewBox="0 0 145 140" enable-background="new 0 0 145 140" xml:space="preserve">
<image overflow="visible" width="316" height="210" id="iStock_x5F_000017200987Medium.psd" xlink:href="/Portals/_default/Skins/edox/images/linkimg/medium.binoculars.png"  transform="matrix(0.5 0 0 0.5 -10.0005 16.5483)">
</image>
<g opacity="0.6">
	<path fill="#0583B6" d="M105.815,52.074c-19.848,0-35.934,16.09-35.934,35.934c0,19.846,16.086,35.934,35.934,35.934
		c19.846,0,35.932-16.088,35.932-35.934C141.747,68.164,125.661,52.074,105.815,52.074z"/>
</g>
<g>
	<g>
		<path fill="#FFFFFF" d="M122.236,104.184H89.791c-1.215,0-2.203-0.99-2.203-2.205v-1.41c0-4.752,4.346-6.43,7.838-7.775
			c2.683-1.035,4.431-1.797,4.789-3.021c-1.215-1.479-4.164-5.758-4.164-12.479c0-5.492,4.469-9.963,9.963-9.963
			s9.965,4.471,9.965,9.963c0,6.721-2.95,11-4.166,12.479c0.357,1.225,2.105,1.986,4.789,3.021c3.492,1.346,7.838,3.023,7.838,7.775
			v1.41C124.439,103.193,123.451,104.184,122.236,104.184z M90.588,101.184h30.852v-0.615c0-2.514-2.235-3.557-5.918-4.977
			c-3.178-1.227-6.777-2.615-6.777-6.309v-0.621l0.439-0.439c0.033-0.033,3.795-3.943,3.795-10.93c0-3.84-3.125-6.963-6.965-6.963
			c-3.839,0-6.963,3.123-6.963,6.963c0,7.055,3.755,10.893,3.793,10.93l0.439,0.439v0.621c0,3.693-3.601,5.082-6.777,6.309
			c-3.683,1.42-5.918,2.463-5.918,4.977V101.184z"/>
	</g>
</g>
</svg>
