<?xml version="1.0" encoding="utf-8"?>
<!-- Generator: Adobe Illustrator 16.0.0, SVG Export Plug-In . SVG Version: 6.00 Build 0)  -->
<!DOCTYPE svg PUBLIC "-//W3C//DTD SVG 1.0//EN" "http://www.w3.org/TR/2001/REC-SVG-20010904/DTD/svg10.dtd">
<svg version="1.0" class="svg" xmlns="http://www.w3.org/2000/svg" xmlns:xlink="http://www.w3.org/1999/xlink" x="0px" y="0px"
	 width="145px" height="140px" viewBox="0 0 145 140" enable-background="new 0 0 145 140" xml:space="preserve">
<g id="iStock_x5F_000013559819Medium.psd">
	
		<image overflow="visible" width="186" height="280" id="iStock_x5F_000013559819Medium.psd_1_" xlink:href="/Portals/_default/Skins/edox/images/linkimg/medium.hourglass.png"  transform="matrix(0.5 0 0 0.5 8.6025 -0.1333)">
	</image>
</g>
<g opacity="0.6">
	<path fill="#0583B6" d="M92.792,61.3c-19.848,0-35.934,16.09-35.934,35.935c0,19.846,16.086,35.934,35.934,35.934
		c19.846,0,35.932-16.088,35.932-35.934C128.724,77.39,112.638,61.3,92.792,61.3z"/>
</g>
<g>
	<path fill="#FFFFFF" d="M78.758,95.034h1.246c2.772,0,5.546-0.402,5.546-3.857c0-2.17-1.689-3.736-4.061-3.736
		c-1.928,0-3.576,1.164-4.258,3.133l-5.104-1.365c1.244-4.221,4.943-6.109,9.123-6.109c4.902,0,9.119,2.572,9.119,7.596
		c0,3.055-1.846,5.666-4.86,6.43v0.08c3.618,0.523,5.545,3.416,5.545,6.912c0,5.424-4.541,8.398-9.603,8.398
		c-4.663,0-8.519-1.928-9.766-6.67l5.143-1.367c0.604,2.332,2.052,3.695,4.623,3.695s4.779-1.807,4.779-4.459
		c0-3.697-3.376-4.34-6.309-4.34h-1.165V95.034z"/>
	<path fill="#FFFFFF" d="M103.518,83.099c3.175,0,10.286,1.246,10.286,14.709c0,13.461-7.111,14.707-10.286,14.707
		s-10.286-1.246-10.286-14.707C93.231,84.345,100.343,83.099,103.518,83.099z M103.518,107.933c4.82,0,5.464-6.59,5.464-10.125
		s-0.644-10.127-5.464-10.127c-4.823,0-5.467,6.592-5.467,10.127S98.694,107.933,103.518,107.933z"/>
</g>
</svg>
