<?xml version="1.0" encoding="utf-8"?>
<!-- Generator: Adobe Illustrator 16.0.0, SVG Export Plug-In . SVG Version: 6.00 Build 0)  -->
<!DOCTYPE svg PUBLIC "-//W3C//DTD SVG 1.0//EN" "http://www.w3.org/TR/2001/REC-SVG-20010904/DTD/svg10.dtd">
<svg version="1.0" id="Layer_1" xmlns="http://www.w3.org/2000/svg" xmlns:xlink="http://www.w3.org/1999/xlink" x="0px" y="0px"
	 width="72px" height="68px" viewBox="0 0 72 68" enable-background="new 0 0 72 68" xml:space="preserve">
<image overflow="visible" width="82" height="124" id="iStock_x5F_000013559819Medium.psd_2_" xlink:href="/Portals/_default/Skins/edox/images/linkimg/mini.hourglass.png"  transform="matrix(0.5 0 0 0.5 16.8354 4.4077)">
</image>
<g opacity="0.6">
	<path fill="#0583B6" d="M39.001,7.55c-15.563,0-28.183,12.617-28.183,28.183c0,15.566,12.619,28.186,28.183,28.186
		c15.566,0,28.187-12.619,28.187-28.186C67.188,20.167,54.567,7.55,39.001,7.55z"/>
</g>
<g opacity="0.2">
	<path fill="#0583B6" d="M32.996,3.987c-15.565,0-28.183,12.618-28.183,28.185c0,15.566,12.617,28.185,28.183,28.185
		c15.567,0,28.187-12.619,28.187-28.185C61.183,16.605,48.563,3.987,32.996,3.987z"/>
</g>
<g>
	<path fill="#FFFFFF" d="M34.118,25.499l-5.109,7.875l0.06,0.06c0.421-0.24,1.263-0.361,1.984-0.361
		c3.757,0,6.402,3.096,6.402,6.794c0,4.418-3.216,7.273-7.575,7.273c-4.448,0-7.575-2.734-7.575-7.244
		c0-2.225,0.812-3.968,1.984-5.832l5.44-8.567H34.118z M29.971,43.716c2.134,0,3.877-1.744,3.877-3.879
		c0-2.133-1.743-3.878-3.877-3.878c-2.135,0-3.878,1.745-3.878,3.878C26.093,41.972,27.836,43.716,29.971,43.716z"/>
	<path fill="#FFFFFF" d="M46.924,25.138c2.375,0,7.695,0.932,7.695,11.001c0,10.07-5.32,11.002-7.695,11.002
		c-2.374,0-7.695-0.932-7.695-11.002C39.229,26.07,44.55,25.138,46.924,25.138z M46.924,43.716c3.607,0,4.089-4.93,4.089-7.576
		c0-2.645-0.481-7.575-4.089-7.575c-3.606,0-4.088,4.93-4.088,7.575C42.836,38.786,43.317,43.716,46.924,43.716z"/>
</g>
</svg>
