<?xml version="1.0" encoding="utf-8"?>
<!-- Generator: Adobe Illustrator 16.0.0, SVG Export Plug-In . SVG Version: 6.00 Build 0)  -->
<!DOCTYPE svg PUBLIC "-//W3C//DTD SVG 1.1//EN" "http://www.w3.org/Graphics/SVG/1.1/DTD/svg11.dtd">
<svg version="1.1" id="Layer_3" xmlns="http://www.w3.org/2000/svg" xmlns:xlink="http://www.w3.org/1999/xlink" x="0px" y="0px"
	 width="26px" height="26.553px" viewBox="0 0 26 26.553" enable-background="new 0 0 26 26.553" xml:space="preserve">
<g>
	<linearGradient id="SVGID_1_" gradientUnits="userSpaceOnUse" x1="13" y1="26.5527" x2="13" y2="0">
		<stop  offset="0" style="stop-color:#FBAD3F"/>
		<stop  offset="0.469" style="stop-color:#F39D38"/>
		<stop  offset="1" style="stop-color:#E7852E"/>
	</linearGradient>
	<path fill="url(#SVGID_1_)" d="M26,23.474c0,1.701-1.379,3.079-3.079,3.079H3.079c-1.7,0-3.079-1.378-3.079-3.079V3.079
		C0,1.378,1.379,0,3.079,0h19.842C24.621,0,26,1.378,26,3.079V23.474z"/>
	<linearGradient id="SVGID_2_" gradientUnits="userSpaceOnUse" x1="13" y1="0.5059" x2="13" y2="26.0469">
		<stop  offset="0" style="stop-color:#FBAD3F"/>
		<stop  offset="0.469" style="stop-color:#F39D38"/>
		<stop  offset="1" style="stop-color:#E7852E"/>
	</linearGradient>
	<path fill="url(#SVGID_2_)" d="M25.428,23.085c0,1.636-1.327,2.961-2.963,2.961H3.38c-1.635,0-2.809-1.326-2.809-2.961V3.467
		c0-1.636,1.173-2.961,2.809-2.961h19.085c1.636,0,2.963,1.326,2.963,2.961V23.085z"/>
	<g opacity="0.15">
		<path fill="#FFFFFF" d="M22.465,0.506H3.38c-1.635,0-2.809,1.326-2.809,2.961v7.406C4.365,11.427,8.569,11.737,13,11.737
			s8.635-0.31,12.428-0.863V3.467C25.428,1.832,24.102,0.506,22.465,0.506z"/>
	</g>
	<g>
		<g>
			<linearGradient id="SVGID_3_" gradientUnits="userSpaceOnUse" x1="13.1279" y1="4.1665" x2="13.1279" y2="22.3862">
				<stop  offset="0" style="stop-color:#FFFFFF"/>
				<stop  offset="0.35" style="stop-color:#FCFCFC"/>
				<stop  offset="0.6084" style="stop-color:#F4F3F3"/>
				<stop  offset="0.8367" style="stop-color:#E5E3E3"/>
				<stop  offset="1" style="stop-color:#D6D2D3"/>
			</linearGradient>
			<path fill="url(#SVGID_3_)" stroke="#EBECED" stroke-width="0.25" stroke-miterlimit="10" d="M22.238,22.386h-4.105
				c0-7.783-6.332-14.114-14.114-14.114V4.167C14.064,4.167,22.238,12.34,22.238,22.386z"/>
		</g>
		<g>
			<linearGradient id="SVGID_4_" gradientUnits="userSpaceOnUse" x1="9.918" y1="10.584" x2="9.918" y2="22.3862">
				<stop  offset="0" style="stop-color:#FFFFFF"/>
				<stop  offset="0.35" style="stop-color:#FCFCFC"/>
				<stop  offset="0.6084" style="stop-color:#F4F3F3"/>
				<stop  offset="0.8367" style="stop-color:#E5E3E3"/>
				<stop  offset="1" style="stop-color:#D6D2D3"/>
			</linearGradient>
			<path fill="url(#SVGID_4_)" stroke="#EBECED" stroke-width="0.25" stroke-miterlimit="10" d="M15.819,22.386h-4.105
				c0-4.244-3.453-7.697-7.696-7.697v-4.105C10.524,10.584,15.819,15.878,15.819,22.386z"/>
		</g>
		<g>
			<linearGradient id="SVGID_5_" gradientUnits="userSpaceOnUse" x1="6.2036" y1="17.501" x2="6.2036" y2="22.3862">
				<stop  offset="0" style="stop-color:#FFFFFF"/>
				<stop  offset="0.35" style="stop-color:#FCFCFC"/>
				<stop  offset="0.6084" style="stop-color:#F4F3F3"/>
				<stop  offset="0.8367" style="stop-color:#E5E3E3"/>
				<stop  offset="1" style="stop-color:#D6D2D3"/>
			</linearGradient>
			<circle fill="url(#SVGID_5_)" stroke="#EBECED" stroke-width="0.25" stroke-miterlimit="10" cx="6.204" cy="19.944" r="2.442"/>
		</g>
	</g>
</g>
</svg>
