<?xml version="1.0" encoding="utf-8"?>
<!-- Generator: Adobe Illustrator 16.0.0, SVG Export Plug-In . SVG Version: 6.00 Build 0)  -->
<!DOCTYPE svg PUBLIC "-//W3C//DTD SVG 1.0//EN" "http://www.w3.org/TR/2001/REC-SVG-20010904/DTD/svg10.dtd">
<svg version="1.0" id="Layer_1" xmlns="http://www.w3.org/2000/svg" xmlns:xlink="http://www.w3.org/1999/xlink" x="0px" y="0px"
	 width="102px" height="98px" viewBox="0 0 102 98" enable-background="new 0 0 102 98" xml:space="preserve">
<image overflow="visible" width="218" height="144" id="iStock_x5F_000003027193Medium.psd_2_" xlink:href="/Portals/_default/Skins/edox/images/linkimg/small.briefcase.png"  transform="matrix(0.5 0 0 0.5 -1.1626 11.0537)">
</image>
<g opacity="0.6">
	<path fill="#0583B6" d="M56.283,10.224c-23.02,0-41.68,18.661-41.68,41.682c0,23.021,18.66,41.682,41.68,41.682
		c23.021,0,41.684-18.66,41.684-41.682C97.967,28.885,79.305,10.224,56.283,10.224z"/>
</g>
<g opacity="0.2">
	<path fill="#0583B6" d="M46.295,4.599c-23.02,0-41.681,18.662-41.681,41.682c0,23.02,18.661,41.682,41.681,41.682
		c23.021,0,41.684-18.662,41.684-41.682C87.979,23.261,69.316,4.599,46.295,4.599z"/>
</g>
<path fill="#FFFFFF" d="M71.241,59.004c2.779-2.494,4.444-5.664,4.444-9.109c0-8.061-9.083-14.591-20.285-14.591
	c-11.203,0-20.286,6.53-20.286,14.591c0,8.059,9.083,14.591,20.286,14.591c3.326,0,6.464-0.576,9.232-1.6l9.864,3.698L71.241,59.004
	z"/>
</svg>
