<?xml version="1.0" encoding="utf-8"?>
<!-- Generator: Adobe Illustrator 16.0.0, SVG Export Plug-In . SVG Version: 6.00 Build 0)  -->
<!DOCTYPE svg PUBLIC "-//W3C//DTD SVG 1.0//EN" "http://www.w3.org/TR/2001/REC-SVG-20010904/DTD/svg10.dtd">
<svg version="1.0" id="Layer_1" xmlns="http://www.w3.org/2000/svg" xmlns:xlink="http://www.w3.org/1999/xlink" x="0px" y="0px"
	 width="145px" height="144px" viewBox="0 0 145 144" enable-background="new 0 0 145 144" xml:space="preserve">
<image overflow="visible" width="266" height="288" id="iStock_x5F_000015565812Medium.psd" xlink:href="/portals/_default/Skins/edox/images/svg/linkimg/stopwatch.png"  transform="matrix(0.502 0 0 0.5 0 0)">
</image>
<g>
	<g opacity="0.6">
		<path fill="#0583B6" d="M108.919,62.854c-19.929,0-36.082,16.087-36.082,35.928c0,19.842,16.153,35.927,36.082,35.927
			c19.928,0,36.081-16.085,36.081-35.927C145,78.941,128.847,62.854,108.919,62.854z"/>
	</g>
</g>
<path fill="#FFFFFF" d="M126.902,104.427c5.705-5.678,5.709-14.896,0-20.576c-5.71-5.681-14.96-5.681-20.663,0.001
	c-4.799,4.777-5.558,12.043-2.295,17.618L89.93,115.425l5.267,5.242l14.014-13.956C114.806,109.963,122.108,109.2,126.902,104.427z
	 M109.639,101.039c-3.826-3.812-3.826-9.993,0-13.801c3.824-3.812,10.032-3.812,13.864,0c3.829,3.808,3.829,9.988,0,13.801
	C119.671,104.852,113.463,104.852,109.639,101.039z"/>
</svg>
